kick coordinate motion generated from LLM joint_angles
version=1
nRows=18
nColumns=36
inDegrees=yes
endheader
time	pelvis_tilt	pelvis_list	pelvis_rotation	pelvis_tx	pelvis_ty	pelvis_tz	hip_flexion_r	hip_adduction_r	hip_rotation_r	knee_angle_r	knee_angle_r_beta	ankle_angle_r	subtalar_angle_r	mtp_angle_r	hip_flexion_l	hip_adduction_l	hip_rotation_l	knee_angle_l	knee_angle_l_beta	ankle_angle_l	subtalar_angle_l	mtp_angle_l	lumbar_extension	lumbar_bending	lumbar_rotation	arm_flex_r	arm_add_r	arm_rot_r	elbow_flex_r	pro_sup_r	arm_flex_l	arm_add_l	arm_rot_l	elbow_flex_l	pro_sup_l
0.246667	6.996633	3.498317	3.498317	0.000000	0.000000	0.000000	62.969701	0.000000	0.000000	83.959601	0.000000	62.969701	6.996633	13.993267	0.000000	0.000000	0.000000	0.000000	0.000000	0.000000	0.000000	0.000000	0.000000	0.000000	0.000000	0.000000	0.000000	0.000000	0.000000	0.000000	0.000000	0.000000	0.000000	0.000000	0.000000
0.253333	7.144727	3.572363	3.572363	0.000000	0.000000	0.000000	64.302541	0.000000	0.000000	85.736722	0.000000	64.302541	7.144727	14.289454	0.000000	0.000000	0.000000	0.000000	0.000000	0.000000	0.000000	0.000000	0.000000	0.000000	0.000000	0.000000	0.000000	0.000000	0.000000	0.000000	0.000000	0.000000	0.000000	0.000000	0.000000
0.260000	7.289686	3.644843	3.644843	0.000000	0.000000	0.000000	65.607176	0.000000	0.000000	87.476235	0.000000	65.607176	7.289686	14.579373	0.000000	0.000000	0.000000	0.000000	0.000000	0.000000	0.000000	0.000000	0.000000	0.000000	0.000000	0.000000	0.000000	0.000000	0.000000	0.000000	0.000000	0.000000	0.000000	0.000000	0.000000
0.266667	7.431448	3.715724	3.715724	0.000000	0.000000	0.000000	66.883034	0.000000	0.000000	89.177379	0.000000	66.883034	7.431448	14.862897	0.000000	0.000000	0.000000	0.000000	0.000000	0.000000	0.000000	0.000000	0.000000	0.000000	0.000000	0.000000	0.000000	0.000000	0.000000	0.000000	0.000000	0.000000	0.000000	0.000000	0.000000
0.273333	7.569951	3.784975	3.784975	0.000000	0.000000	0.000000	68.129555	0.000000	0.000000	90.839407	0.000000	68.129555	7.569951	15.139901	0.000000	0.000000	0.000000	0.000000	0.000000	0.000000	0.000000	0.000000	0.000000	0.000000	0.000000	0.000000	0.000000	0.000000	0.000000	0.000000	0.000000	0.000000	0.000000	0.000000	0.000000
0.280000	7.705132	3.852566	3.852566	0.000000	0.000000	0.000000	69.346192	0.000000	0.000000	92.461589	0.000000	69.346192	7.705132	15.410265	0.000000	0.000000	0.000000	0.000000	0.000000	0.000000	0.000000	0.000000	0.000000	0.000000	0.000000	0.000000	0.000000	0.000000	0.000000	0.000000	0.000000	0.000000	0.000000	0.000000	0.000000
0.286667	7.836935	3.918467	3.918467	0.000000	0.000000	0.000000	70.532411	0.000000	0.000000	94.043215	0.000000	70.532411	7.836935	15.673869	0.000000	0.000000	0.000000	0.000000	0.000000	0.000000	0.000000	0.000000	0.000000	0.000000	0.000000	0.000000	0.000000	0.000000	0.000000	0.000000	0.000000	0.000000	0.000000	0.000000	0.000000
0.293333	7.965299	3.982650	3.982650	0.000000	0.000000	0.000000	71.687693	0.000000	0.000000	95.583590	0.000000	71.687693	7.965299	15.930598	0.000000	0.000000	0.000000	0.000000	0.000000	0.000000	0.000000	0.000000	0.000000	0.000000	0.000000	0.000000	0.000000	0.000000	0.000000	0.000000	0.000000	0.000000	0.000000	0.000000	0.000000
0.300000	8.090170	4.045085	4.045085	0.000000	0.000000	0.000000	72.811529	0.000000	0.000000	97.082039	0.000000	72.811529	8.090170	16.180340	0.000000	0.000000	0.000000	0.000000	0.000000	0.000000	0.000000	0.000000	0.000000	0.000000	0.000000	0.000000	0.000000	0.000000	0.000000	0.000000	0.000000	0.000000	0.000000	0.000000	0.000000
0.306667	8.211492	4.105746	4.105746	0.000000	0.000000	0.000000	73.903429	0.000000	0.000000	98.537905	0.000000	73.903429	8.211492	16.422984	0.000000	0.000000	0.000000	0.000000	0.000000	0.000000	0.000000	0.000000	0.000000	0.000000	0.000000	0.000000	0.000000	0.000000	0.000000	0.000000	0.000000	0.000000	0.000000	0.000000	0.000000
0.313333	8.329212	4.164606	4.164606	0.000000	0.000000	0.000000	74.962912	0.000000	0.000000	99.950549	0.000000	74.962912	8.329212	16.658425	0.000000	0.000000	0.000000	0.000000	0.000000	0.000000	0.000000	0.000000	0.000000	0.000000	0.000000	0.000000	0.000000	0.000000	0.000000	0.000000	0.000000	0.000000	0.000000	0.000000	0.000000
0.320000	8.443279	4.221640	4.221640	0.000000	0.000000	0.000000	75.989513	0.000000	0.000000	101.319351	0.000000	75.989513	8.443279	16.886559	0.000000	0.000000	0.000000	0.000000	0.000000	0.000000	0.000000	0.000000	0.000000	0.000000	0.000000	0.000000	0.000000	0.000000	0.000000	0.000000	0.000000	0.000000	0.000000	0.000000	0.000000
0.326667	8.553643	4.276821	4.276821	0.000000	0.000000	0.000000	76.982783	0.000000	0.000000	102.643711	0.000000	76.982783	8.553643	17.107285	0.000000	0.000000	0.000000	0.000000	0.000000	0.000000	0.000000	0.000000	0.000000	0.000000	0.000000	0.000000	0.000000	0.000000	0.000000	0.000000	0.000000	0.000000	0.000000	0.000000	0.000000
0.333333	8.660254	4.330127	4.330127	0.000000	0.000000	0.000000	77.942286	0.000000	0.000000	103.923048	0.000000	77.942286	8.660254	17.320508	0.000000	0.000000	0.000000	0.000000	0.000000	0.000000	0.000000	0.000000	0.000000	0.000000	0.000000	0.000000	0.000000	0.000000	0.000000	0.000000	0.000000	0.000000	0.000000	0.000000	0.000000
0.340000	8.763067	4.381533	4.381533	0.000000	0.000000	0.000000	78.867601	0.000000	0.000000	105.156802	0.000000	78.867601	8.763067	17.526134	0.000000	0.000000	0.000000	0.000000	0.000000	0.000000	0.000000	0.000000	0.000000	0.000000	0.000000	0.000000	0.000000	0.000000	0.000000	0.000000	0.000000	0.000000	0.000000	0.000000	0.000000
0.346667	8.862036	4.431018	4.431018	0.000000	0.000000	0.000000	79.758322	0.000000	0.000000	106.344430	0.000000	79.758322	8.862036	17.724072	0.000000	0.000000	0.000000	0.000000	0.000000	0.000000	0.000000	0.000000	0.000000	0.000000	0.000000	0.000000	0.000000	0.000000	0.000000	0.000000	0.000000	0.000000	0.000000	0.000000	0.000000
0.353333	8.957118	4.478559	4.478559	0.000000	0.000000	0.000000	80.614058	0.000000	0.000000	107.485411	0.000000	80.614058	8.957118	17.914235	0.000000	0.000000	0.000000	0.000000	0.000000	0.000000	0.000000	0.000000	0.000000	0.000000	0.000000	0.000000	0.000000	0.000000	0.000000	0.000000	0.000000	0.000000	0.000000	0.000000	0.000000
0.360000	9.048271	4.524135	4.524135	0.000000	0.000000	0.000000	81.434435	0.000000	0.000000	108.579246	0.000000	81.434435	9.048271	18.096541	0.000000	0.000000	0.000000	0.000000	0.000000	0.000000	0.000000	0.000000	0.000000	0.000000	0.000000	0.000000	0.000000	0.000000	0.000000	0.000000	0.000000	0.000000	0.000000	0.000000	0.000000
